# This file uses centimeters as units for non-parametric coordinates.

mtllib lowpolywall.mtl
g default
v 0.000000 0.000000 6.000000
v -0.250000 4.750000 6.000000
v -0.250000 4.750000 3.000000
v -0.250000 4.750000 -0.000001
v 0.000000 0.000000 -0.000001
v 0.000000 0.000000 3.000000
v 0.000000 0.169822 6.000000
v 0.000000 0.169822 3.000000
v 0.000000 0.169822 -0.000001
v -0.250000 0.185248 6.000000
v -0.250000 0.185248 3.000000
v -0.250000 0.185248 -0.000001
vt 0.520752 0.084312
vt 0.999937 0.084342
vt 1.000000 0.999884
vt 0.520769 0.999963
vt 0.000032 0.084278
vt 0.000016 0.999965
vt 0.000049 0.000065
vt 0.520751 0.000043
vt 0.520751 0.034075
vt 0.000044 0.034045
vt 0.999922 0.000051
vt 0.999927 0.034109
vn 0.998514 0.054502 0.000000
vn 0.998514 0.054502 0.000000
vn 1.000000 0.000000 0.000000
vn 1.000000 0.000000 0.000000
vn 0.998514 0.054502 0.000000
vn 0.998514 0.054502 0.000000
vn 1.000000 0.000000 0.000000
vn 1.000000 0.000000 0.000000
vn 1.000000 0.000000 0.000000
vn 1.000000 0.000000 0.000000
vn 0.595357 0.803461 0.000000
vn 0.595357 0.803461 0.000000
vn 1.000000 0.000000 0.000000
vn 1.000000 0.000000 0.000000
vn 0.595357 0.803461 0.000000
vn 0.595357 0.803461 0.000000
vn 0.595357 0.803461 0.000000
vn 0.595357 0.803461 0.000000
vn 0.998514 0.054502 0.000000
vn 0.998514 0.054502 0.000000
vn 0.595357 0.803461 0.000000
vn 0.595357 0.803461 0.000000
vn 0.998514 0.054502 0.000000
vn 0.998514 0.054502 0.000000
s off
g lowpolywall:pCube1
usemtl lowpolywall:initialShadingGroup
f 11/1/1 12/2/2 4/3/3 3/4/4
f 10/5/5 11/1/6 3/4/7 2/6/8
f 1/7/9 6/8/10 8/9/11 7/10/12
f 6/8/13 5/11/14 9/12/15 8/9/16
f 7/10/17 8/9/18 11/1/19 10/5/20
f 8/9/21 9/12/22 12/2/23 11/1/24
