# This file uses centimeters as units for non-parametric coordinates.

mtllib wall_cor_out.mtl
g default
v -3.000000 0.000000 3.250000
v -3.000000 4.750000 3.000000
v -0.250000 4.750000 3.000000
v -0.250000 4.750000 -0.000001
v 0.000000 0.000000 -0.000001
v 0.000000 0.000000 3.250000
v -3.000000 0.169822 3.250000
v 0.000000 0.169822 3.250000
v 0.000000 0.169822 -0.000001
v -3.000000 0.185248 3.000000
v -0.250000 0.185248 3.000000
v -0.250000 0.185248 -0.000001
vt 0.504218 0.084276
vt 0.999937 0.084306
vt 1.000000 0.999919
vt 0.504235 0.999998
vt 0.000016 0.084242
vt 0.000000 1.000000
vt 0.000033 0.000022
vt 0.504217 0.000000
vt 0.504217 0.034035
vt 0.000028 0.034005
vt 0.999922 0.000008
vt 0.999927 0.034069
vn 0.731860 0.119567 0.670884
vn 0.998388 0.056758 0.000000
vn 1.000000 0.000000 0.000000
vn 0.737154 0.000000 0.675725
vn 0.000000 0.056963 0.998376
vn 0.000000 0.000000 1.000000
vn 0.000000 0.000000 1.000000
vn 0.734804 0.000000 0.678280
vn 0.530667 0.691744 0.489778
vn 0.000000 0.792128 0.610355
vn 1.000000 0.000000 0.000000
vn 0.609179 0.793033 0.000000
s 1
g wall_corner_out
usemtl lowpolywall:initialShadingGroup
f 11/1/1 12/2/2 4/3/3 3/4/4
f 10/5/5 11/1/1 3/4/4 2/6/6
f 1/7/7 6/8/8 8/9/9 7/10/10
f 6/8/8 5/11/11 9/12/12 8/9/9
f 7/10/10 8/9/9 11/1/1 10/5/5
f 8/9/9 9/12/12 12/2/2 11/1/1
