# This file uses centimeters as units for non-parametric coordinates.

mtllib rubble_block_03.mtl
g default
v 0.753494 0.245585 1.163136
v -0.046399 0.223740 0.212054
v 0.004089 0.372927 1.158279
v 0.164995 0.063179 -0.001756
v 0.033962 0.086604 0.585179
v 0.626656 0.492471 1.171618
v 0.751996 0.417725 0.625338
v 0.680411 -0.002276 0.097201
v 0.753210 0.154153 0.925777
v 0.003062 0.077828 0.987766
v 0.266097 0.154715 1.266163
v 0.170985 0.000390 0.615970
v 0.734512 0.239187 0.772693
v 0.090627 0.366128 0.001366
v 0.021886 0.058782 0.088206
v -0.002879 0.398476 0.268401
v 0.452465 0.067995 0.997037
v 0.053078 0.464128 1.094667
v 0.489991 0.007600 0.399325
v 0.080244 0.198027 1.242690
v 0.598169 0.011526 0.841676
v 0.531721 0.092715 -0.020333
v 0.275324 0.494269 0.097827
v 0.568020 -0.002181 1.065990
v 0.751730 0.378701 0.102210
v 0.382110 0.546001 0.580983
v 0.174469 0.500778 0.467989
v 0.669121 0.498273 0.190034
v 0.414156 0.499269 0.959315
v 0.307497 -0.040751 0.792588
v 0.678577 0.359443 1.255400
v 0.535939 0.435428 1.235857
v 0.753085 0.229873 0.518762
v 0.304852 0.021331 1.014100
v 0.102189 0.001908 0.364538
v 0.094759 0.414500 1.230287
v 0.683528 0.476261 1.009784
v 0.677217 0.018855 0.970523
v 0.359923 0.501026 1.165094
v 0.039854 0.033121 0.499009
v 0.356327 0.400635 -0.011643
v 0.647178 0.103563 1.172961
v 0.750742 0.175838 0.111646
v 0.713057 0.232793 0.005675
v 0.003904 0.423437 0.745311
v 0.007459 0.151900 1.173466
v 0.581556 0.495893 0.070626
v 0.310068 -0.057297 0.496300
v 0.229912 0.040433 1.233705
v 0.132956 -0.001814 0.085001
v 0.067437 0.500198 0.847955
v 0.096179 0.013557 0.949639
v 0.587465 0.423248 0.009105
v 0.243437 0.479780 0.798759
v 0.576997 0.221690 1.249264
v 0.055171 0.497236 0.072643
v 0.005557 0.361245 0.082969
v 0.416614 -0.002592 1.151347
v 0.217199 0.006676 0.203281
v 0.024704 0.333820 0.779033
v 0.212812 0.340845 1.199772
v 0.007351 0.251732 0.661061
v 0.730155 0.388506 1.127491
v 0.077760 0.020314 1.187715
v 0.467893 -0.033768 0.734051
v 0.497140 -0.002479 0.060951
v 0.461969 0.054295 0.293489
v 0.381800 0.402764 1.264121
v 0.563357 0.005820 0.228392
v 0.000857 0.088328 0.346275
v 0.751522 0.426414 0.391358
v 0.010777 0.427106 0.508381
v 0.663228 0.504784 0.572177
v 0.439221 0.086811 1.239836
v 0.452260 0.228910 1.284670
v 0.022255 0.019067 1.089781
v 0.752032 0.451511 0.867672
v 0.395824 0.224732 0.012738
v 0.406367 0.054387 0.001198
v 0.081802 0.150771 -0.000303
v 0.686564 0.114696 0.448870
v 0.099673 0.499661 0.579109
v 0.368130 0.041661 0.209690
vt 0.264337 0.280573
vt 0.224980 0.274066
vt 0.254286 0.225141
vt 0.000977 0.131178
vt 0.045164 0.134418
vt 0.059872 0.225962
vt 0.028150 0.212429
vt 0.254718 0.529659
vt 0.201937 0.555430
vt 0.211844 0.507692
vt 0.276172 0.501454
vt 0.357933 0.314567
vt 0.320304 0.240432
vt 0.357554 0.222422
vt 0.236426 0.039314
vt 0.254483 0.015459
vt 0.265047 0.080904
vt 0.239427 0.083206
vt 0.258084 0.611881
vt 0.224745 0.598415
vt 0.281072 0.526900
vt 0.167982 0.023483
vt 0.146992 0.006260
vt 0.227585 0.000998
vt 0.218773 0.023291
vt 0.167490 0.375054
vt 0.159089 0.421217
vt 0.136680 0.389476
vt 0.149171 0.358137
vt 0.066601 0.283666
vt 0.019169 0.334796
vt 0.133148 0.327372
vt 0.112430 0.366537
vt 0.188447 0.312168
vt 0.130081 0.232894
vt 0.191090 0.229707
vt 0.098175 0.608321
vt 0.143509 0.629125
vt 0.119847 0.662810
vt 0.090564 0.686647
vt 0.127625 0.700438
vt 0.160494 0.674064
vt 0.192340 0.681487
vt 0.204019 0.709874
vt 0.115611 0.298254
vt 0.082565 0.371563
vt 0.053406 0.320856
vt 0.103437 0.246717
vt 0.144536 0.450843
vt 0.190592 0.448538
vt 0.193152 0.474550
vt 0.158830 0.485127
vt 0.302783 0.266519
vt 0.290089 0.346339
vt 0.228741 0.432590
vt 0.240965 0.386944
vt 0.274619 0.424075
vt 0.269786 0.475124
vt 0.235590 0.460818
vt 0.369207 0.367901
vt 0.324326 0.377944
vt 0.336990 0.354947
vt 0.187612 0.616080
vt 0.166052 0.559904
vt 0.224629 0.654316
vt 0.092159 0.130531
vt 0.102441 0.195754
vt 0.287859 0.112207
vt 0.356969 0.108061
vt 0.320980 0.139468
vt 0.282867 0.154662
vt 0.283767 0.259084
vt 0.353837 0.167838
vt 0.246364 0.630283
vt 0.128833 0.498477
vt 0.270514 0.332782
vt 0.269965 0.367282
vt 0.204118 0.353983
vt 0.142479 0.530379
vt 0.180256 0.505170
vt 0.184401 0.095496
vt 0.172807 0.059432
vt 0.133864 0.105419
vt 0.104229 0.064775
vt 0.123613 0.151764
vt 0.142563 0.033417
vt 0.104663 0.008606
vt 0.279173 0.208150
vt 0.254332 0.112812
vt 0.235579 0.202078
vt 0.139837 0.125273
vt 0.110329 0.421285
vt 0.251104 0.665182
vt 0.230145 0.715846
vt 0.199473 0.381925
vt 0.187047 0.418315
vt 0.205862 0.123731
vt 0.055972 0.107592
vt 0.106439 0.086553
vt 0.370108 0.340299
vt 0.144586 0.653796
vt 0.369268 0.202504
vn -0.252362 0.967430 0.019825
vn -0.090042 0.995615 0.025378
vn -0.297302 0.954532 0.021931
vn 0.621066 -0.780372 -0.072775
vn 0.974956 -0.221418 -0.020868
vn 0.972963 -0.230223 0.018468
vn 0.747381 -0.663883 0.026085
vn -0.302986 -0.952085 0.041645
vn -0.015281 -0.994220 0.106268
vn 0.057050 -0.993082 0.102633
vn -0.282392 -0.957316 0.061659
vn -0.931683 -0.357115 -0.066602
vn -0.997265 -0.051294 -0.053204
vn -0.894091 -0.447870 0.003628
vn -0.317752 -0.080847 -0.944721
vn -0.797777 -0.512167 -0.318178
vn -0.897656 0.099376 -0.429347
vn -0.206397 0.176250 -0.962464
vn -0.382181 -0.924045 0.008868
vn -0.029752 -0.411439 -0.910952
vn -0.035900 -0.965101 -0.259406
vn -0.271989 -0.932301 -0.238405
vn -0.078111 -0.337587 -0.938048
vn 0.066720 0.444421 0.893330
vn 0.301323 -0.161882 0.939680
vn 0.371506 0.109936 0.921899
vn 0.154043 0.924100 0.349729
vn 0.946126 -0.321404 -0.039316
vn 0.712729 -0.701128 0.020896
vn 0.216098 0.972907 0.082175
vn 0.893849 0.378528 0.240314
vn 0.051015 0.997854 0.041052
vn 0.233753 0.971536 0.038429
vn 0.006482 0.999720 0.022760
vn 0.270273 -0.960613 -0.064619
vn 0.167304 -0.966307 0.195601
vn 0.039168 -0.988058 0.149023
vn 0.063906 -0.997537 -0.028897
vn 0.974522 0.223888 0.013479
vn 0.921016 -0.161415 0.354506
vn 0.990085 -0.138200 -0.025158
vn 0.979756 0.200117 -0.005691
vn 0.485927 -0.558191 0.672530
vn 0.195604 -0.518393 0.832471
vn 0.126377 -0.955050 0.268156
vn 0.136157 -0.943301 0.302728
vn -0.999799 -0.018185 0.008438
vn -0.946702 0.151776 0.284110
vn -0.124053 -0.047146 0.991155
vn -0.117639 0.207238 0.971192
vn -0.413358 0.029947 0.910076
vn -0.194169 -0.952156 0.236004
vn -0.050928 -0.550549 0.833248
vn -0.906536 -0.058406 0.418068
vn -0.008678 -0.996700 -0.080704
vn 0.241602 -0.968378 0.062230
vn -0.254342 -0.963712 -0.081050
vn 0.947276 0.262662 -0.183515
vn 0.950709 0.309352 -0.021317
vn -0.995586 0.004247 -0.093760
vn -0.984466 0.174152 -0.022300
vn -0.952241 0.304903 -0.016459
vn -0.915027 -0.395501 0.079399
vn -0.491046 -0.864177 0.109872
vn -0.433931 0.881825 0.184631
vn -0.318178 0.481258 0.816795
vn -0.029102 0.964043 0.264149
vn 0.365237 -0.928241 -0.070504
vn 0.057394 -0.992695 0.106129
vn -0.001236 0.239815 -0.970818
vn 0.011424 -0.020553 -0.999724
vn 0.142441 0.323012 -0.935614
vn 0.363507 -0.038468 -0.930797
vn 0.261682 0.957680 -0.119882
vn 0.097013 -0.185169 -0.977907
vn -0.946222 0.321612 0.035071
vn -0.225036 0.926079 -0.302881
vn -0.086472 0.996140 -0.015067
vn 0.080521 0.960161 -0.267595
vn -0.075695 0.301425 0.950480
vn 0.040289 -0.029317 0.998758
vn -0.037093 0.967395 -0.250542
vn 0.003703 -0.976728 -0.214448
s 1
g rubble_02_low:polySurface6 rubble_02_low:Group10933
usemtl initialShadingGroup
f 51/1/1 54/2/2 82/3/3
f 8/4/4 43/5/5 33/6/6 81/7/7
f 52/8/8 30/9/9 34/10/10 76/11/11
f 10/12/12 62/13/13 5/14/14
f 80/15/15 15/16/16 57/17/17 14/18/18
f 5/19/14 12/20/19 52/8/8 10/21/12
f 79/22/20 66/23/21 50/24/22 4/25/23
f 32/26/24 55/27/25 31/28/26 6/29/27
f 33/6/6 13/30/28 38/31/29 81/7/7
f 37/32/30 6/29/27 63/33/31
f 29/34/32 37/32/30 73/35/33 26/36/34
f 81/37/7 19/38/35 69/39/36 8/40/4
f 66/41/21 83/42/37 59/43/38 50/44/22
f 77/45/39 1/46/40 9/47/41 7/48/42
f 42/49/43 74/50/44 58/51/45 24/52/46
f 60/53/47 10/12/12 3/54/48
f 11/55/49 61/56/50 20/57/51
f 64/58/52 58/51/45 49/59/53
f 64/60/52 20/61/51 46/62/54
f 48/63/55 19/38/35 65/64/56 30/9/9
f 59/43/38 19/38/35 48/63/55 35/65/57
f 9/47/41 13/30/28 7/48/42
f 25/66/58 71/67/59 33/6/6 43/5/5
f 57/68/17 15/69/16 2/70/60 16/71/61
f 45/72/62 51/1/1 82/3/3
f 15/69/16 70/73/63 2/70/60
f 12/20/19 40/74/64 35/65/57 48/63/55
f 2/70/60 70/73/63 16/71/61
f 38/75/29 42/49/43 24/52/46
f 3/54/48 18/76/65 45/72/62
f 36/77/66 39/78/67 18/76/65
f 65/64/56 19/38/35 21/79/68
f 3/54/48 46/62/54 20/61/51 36/77/66
f 36/77/66 20/57/51 61/56/50
f 30/9/9 65/64/56 17/80/69 34/10/10
f 34/10/10 58/51/45 64/58/52 76/11/11
f 80/15/15 14/18/18 41/81/70 78/82/71
f 53/83/72 44/84/73 78/82/71 41/81/70
f 71/67/59 25/66/58 28/85/74 73/35/33
f 21/79/68 24/52/46 17/80/69
f 21/79/68 38/75/29 24/52/46
f 78/82/71 44/84/73 22/86/75
f 22/86/75 44/84/73 8/87/4
f 72/88/76 82/3/3 56/89/77
f 54/2/2 26/36/34 27/90/78
f 28/85/74 26/36/34 73/35/33
f 25/66/58 53/83/72 47/91/79 28/85/74
f 6/29/27 37/32/30 29/34/32
f 6/29/27 29/34/32 51/1/1 39/78/67
f 30/9/9 52/8/8 12/20/19 48/63/55
f 31/28/26 55/27/25 42/49/43 1/92/40
f 1/46/40 77/45/39 63/33/31
f 33/6/6 7/48/42 13/30/28
f 73/35/33 37/32/30 77/45/39
f 34/10/10 17/80/69 58/51/45
f 35/65/57 70/93/63 15/94/16 50/44/22
f 3/54/48 36/77/66 18/76/65
f 77/45/39 7/48/42 73/35/33
f 38/31/29 9/47/41 1/46/40
f 38/31/29 13/30/28 9/47/41
f 32/26/24 6/29/27 39/78/67 68/95/80
f 68/95/80 61/56/50 11/55/49 75/96/81
f 5/19/14 40/74/64 12/20/19
f 70/73/63 5/14/14 16/71/61
f 41/81/70 23/97/82 47/91/79 53/83/72
f 56/89/77 23/97/82 41/81/70 14/18/18
f 42/49/43 38/75/29 1/92/40
f 25/66/58 44/98/73 53/99/72
f 8/4/4 44/98/73 43/5/5
f 44/98/73 25/66/58 43/5/5
f 5/14/14 72/88/76 16/71/61
f 72/88/76 56/89/77 16/71/61
f 10/12/12 46/62/54 3/54/48
f 20/57/51 49/59/53 11/55/49
f 74/50/44 42/49/43 55/27/25 75/96/81
f 4/25/23 50/24/22 15/16/16 80/15/15
f 39/78/67 51/1/1 18/76/65
f 51/1/1 45/72/62 18/76/65
f 10/21/12 52/8/8 76/11/11
f 54/2/2 29/34/32 26/36/34
f 51/1/1 29/34/32 54/2/2
f 74/50/44 75/96/81 11/55/49 49/59/53
f 57/17/17 56/89/77 14/18/18
f 57/68/17 16/71/61 56/89/77
f 17/80/69 24/52/46 58/51/45
f 50/44/22 59/43/38 35/65/57
f 45/72/62 60/53/47 3/54/48
f 10/12/12 60/53/47 62/13/13
f 5/14/14 62/13/13 72/88/76
f 45/72/62 62/13/13 60/53/47
f 31/28/26 63/33/31 6/29/27
f 1/92/40 63/33/31 31/28/26
f 76/100/11 46/62/54 10/12/12
f 65/64/56 21/79/68 17/80/69
f 66/41/21 8/40/4 69/39/36 83/42/37
f 22/86/75 8/87/4 66/23/21
f 67/101/83 19/38/35 59/43/38
f 32/26/24 68/95/80 75/96/81 55/27/25
f 67/101/83 69/39/36 19/38/35
f 40/102/64 5/14/14 70/73/63
f 70/93/63 35/65/57 40/74/64
f 7/48/42 71/67/59 73/35/33
f 7/48/42 33/6/6 71/67/59
f 72/88/76 45/72/62 82/3/3
f 62/13/13 45/72/62 72/88/76
f 49/59/53 58/51/45 74/50/44
f 76/100/11 64/60/52 46/62/54
f 63/33/31 77/45/39 37/32/30
f 80/15/15 78/82/71 79/22/20 4/25/23
f 22/86/75 66/23/21 79/22/20 78/82/71
f 82/3/3 27/90/78 56/89/77
f 82/3/3 54/2/2 27/90/78
f 83/42/37 69/39/36 67/101/83
f 59/43/38 83/42/37 67/101/83
f 23/97/82 56/89/77 27/90/78 26/36/34
f 21/79/68 19/38/35 81/37/7 38/75/29
f 36/77/66 61/56/50 68/95/80 39/78/67
f 64/58/52 49/59/53 20/57/51
f 23/97/82 26/36/34 28/85/74 47/91/79
