# This file uses centimeters as units for non-parametric coordinates.

mtllib rubble_block_01.mtl
g default
v 0.425961 -0.002995 0.673426
v 0.749178 0.446692 0.957374
v 0.028611 0.500234 0.746573
v 0.682113 0.498603 0.126657
v 0.767036 0.195437 0.452045
v 0.004639 0.416170 0.569941
v 0.720751 0.336521 1.027449
v 0.544380 0.503038 0.884550
v -0.045512 0.181338 0.282795
v 0.001726 0.488315 0.114487
v 0.224811 -0.007540 1.201781
v 0.513987 0.035425 1.237158
v 0.752400 0.078752 0.079768
v 0.042076 0.028504 0.008421
v 0.304709 0.491510 1.031402
v 0.722333 0.207102 0.771108
v 0.222932 0.518735 0.412088
v -0.000842 0.478541 0.384491
v 0.002478 0.043937 0.715344
v 0.469767 -0.034428 0.459897
v 0.052811 0.344005 1.247860
v 0.301302 0.417478 1.254963
v 0.501724 0.219931 1.299582
v 0.189924 0.465480 0.003349
v 0.696173 0.002936 1.189250
v 0.365137 -0.020229 0.937524
v 0.001834 0.450148 1.186651
v 0.050212 0.501062 1.210804
v 0.742691 0.441814 0.325495
v 0.008006 0.095114 0.505022
v 0.742800 0.238211 1.244889
v 0.492412 0.004852 0.047060
v 0.455839 0.492706 0.429475
v 0.015195 0.192247 1.216279
v 0.463050 0.297574 0.028082
v 0.262619 0.491913 0.634378
v 0.180403 0.077985 1.251198
v 0.025657 -0.004155 0.135231
v 0.364062 0.127158 1.236511
v 0.290939 0.064139 -0.012220
v 0.755783 0.376824 0.692437
v 0.077589 -0.005335 0.664392
v 0.707469 0.488781 0.734378
v 0.669521 0.389758 0.002386
v 0.697679 0.449219 1.244335
v 0.239093 -0.000763 0.526669
v 0.266942 0.023471 0.764315
v 0.003700 0.060427 0.242795
v -0.001027 0.241982 0.175103
v 0.742255 0.419236 0.067856
v 0.430004 0.337549 1.252223
v 0.720192 0.185487 0.336765
v 0.685727 0.035499 -0.001883
v 0.696403 0.506875 1.126344
v 0.716497 0.004116 0.145248
v 0.005612 0.015591 0.949171
v 0.750730 0.416552 1.181288
v 0.458045 0.120214 0.006433
v 0.298401 0.233847 1.202553
v 0.455828 0.476600 0.633593
v 0.746789 0.017116 0.756186
v -0.001267 0.125091 0.053014
v 0.759392 0.250889 0.921707
v 0.764282 0.215391 1.067659
v 0.740838 0.040491 1.223134
v 0.663807 0.465948 0.031346
v 0.220314 0.027418 0.597832
v 0.036294 0.442346 0.018247
v 0.705021 0.013508 0.413740
v 0.117703 0.006312 1.233863
v -0.008981 0.207505 0.860966
v 0.590749 0.388342 1.249730
v 0.748238 0.234002 0.170997
v 0.059751 -0.000047 0.292192
v 0.751308 0.062905 0.327164
v 0.406308 0.380456 0.000234
v -0.005291 0.361232 0.335559
v 0.503741 0.500166 1.206731
v 0.011363 0.208053 0.585229
v 0.420302 0.523701 1.012130
v 0.294499 0.492742 0.119723
vt 0.711779 0.297259
vt 0.669621 0.279477
vt 0.697798 0.226242
vt 0.625410 0.387560
vt 0.558412 0.403033
vt 0.562317 0.352616
vt 0.603481 0.216358
vt 0.638287 0.159653
vt 0.657053 0.557312
vt 0.681386 0.484411
vt 0.730797 0.496826
vt 0.738547 0.552687
vt 0.683536 0.091529
vt 0.741659 0.048574
vt 0.770695 0.106426
vt 0.862056 0.123878
vt 0.867581 0.187177
vt 0.849781 0.239356
vt 0.842086 0.126429
vt 0.568598 0.292919
vt 0.644485 0.346087
vt 0.826528 0.505895
vt 0.717880 0.442956
vt 0.774083 0.404273
vt 0.809877 0.399421
vt 0.664523 0.050618
vt 0.493579 0.168798
vt 0.533969 0.148571
vt 0.520929 0.186759
vt 0.673848 0.120668
vt 0.817343 0.125239
vt 0.753203 0.232484
vt 0.821385 0.215141
vt 0.825635 0.286480
vt 0.760393 0.287295
vt 0.778554 0.356488
vt 0.708134 0.346883
vt 0.769525 0.314637
vt 0.805353 0.344870
vt 0.443646 0.261601
vt 0.460681 0.246328
vt 0.522994 0.276074
vt 0.487084 0.285912
vt 0.621354 0.466410
vt 0.563051 0.429288
vt 0.558251 0.537204
vt 0.546715 0.494983
vt 0.497548 0.111957
vt 0.809813 0.060346
vt 0.835133 0.025237
vt 0.830113 0.105310
vt 0.758302 0.569506
vt 0.829549 0.374949
vt 0.849998 0.301282
vt 0.676837 0.383811
vt 0.786251 0.385339
vt 0.580288 0.126472
vt 0.619923 0.109204
vt 0.602068 0.083509
vt 0.564868 0.103631
vt 0.627464 0.061893
vt 0.746740 0.178947
vt 0.698117 0.180771
vt 0.687814 0.404647
vt 0.662926 0.446461
vt 0.561548 0.277156
vt 0.539219 0.218048
vt 0.948252 0.116146
vt 0.887217 0.172000
vt 0.800839 0.555739
vt 0.471182 0.201647
vt 0.448562 0.165951
vt 0.853418 0.276336
vt 0.552332 0.011122
vt 0.667890 0.004454
vt 0.591377 0.053682
vt 0.547493 0.060089
vt 0.449883 0.111998
vt 0.561882 0.170194
vt 0.549425 0.316677
vt 0.725944 0.374224
vt 0.545041 0.113361
vt 0.930564 0.172601
vt 0.945134 0.213444
vt 0.954394 0.273751
vt 0.436600 0.235998
vt 0.840211 0.400175
vt 0.846673 0.459839
vt 0.495756 0.216479
vt 0.960293 0.163148
vt 0.862072 0.017609
vt 0.854238 0.103625
vt 0.549670 0.122708
vt 0.700592 0.438248
vt 0.770781 0.047234
vt 0.773625 0.017190
vt 0.816862 0.573655
vt 0.835956 0.552725
vt 0.548301 0.548939
vt 0.607523 0.188513
vn -0.942736 0.333324 0.011986
vn -0.463225 0.883440 -0.070397
vn -0.068042 0.996832 0.041188
vn -0.757787 -0.650548 0.050461
vn -0.332665 -0.858899 0.389392
vn -0.951181 -0.077496 0.298745
vn -0.008441 0.999943 0.006525
vn 0.088567 0.995688 -0.027612
vn 0.405610 -0.913427 0.033638
vn 0.005426 -0.999970 0.005580
vn -0.005092 -0.999987 -0.000696
vn 0.186717 -0.982414 0.000003
vn 0.970636 0.238920 0.028000
vn 0.999373 -0.011302 -0.033550
vn 0.948340 0.317161 0.007748
vn 0.300322 0.086552 -0.949903
vn 0.045670 0.088557 -0.995024
vn -0.051798 0.372067 -0.926760
vn 0.064679 0.784087 -0.617272
vn -0.984508 0.149183 0.092137
vn -0.999811 -0.005787 0.018559
vn 0.022256 -0.985388 -0.168862
vn -0.056370 -0.998407 0.002245
vn -0.134950 -0.990836 0.005759
vn -0.223898 -0.969535 -0.099354
vn 0.999870 -0.013187 -0.009293
vn -0.002138 -0.069937 0.997549
vn 0.052140 0.211263 0.976037
vn -0.164813 0.031596 0.985819
vn 0.424812 0.905243 -0.008329
vn 0.160897 0.982002 -0.098919
vn -0.048327 0.998608 0.021132
vn -0.009250 0.994052 -0.108511
vn -0.593396 0.794174 -0.131034
vn -0.633893 0.772526 0.037193
vn -0.998978 -0.039283 -0.022353
vn -0.999998 0.001341 -0.001549
vn -0.998685 0.045577 0.023483
vn -0.991730 0.019328 -0.126878
vn -0.068344 -0.179251 0.981427
vn -0.260643 0.059518 0.963599
vn 0.019248 -0.999761 -0.010344
vn -0.016894 -0.988039 0.153273
vn 0.115610 -0.991683 0.056569
vn 0.054094 -0.458670 0.886958
vn 0.865099 -0.058051 0.498231
vn 0.998117 0.020554 0.057795
vn 0.923495 -0.104906 -0.368988
vn 0.948750 0.104763 -0.298158
vn 0.985600 -0.168554 0.013521
vn -0.961887 -0.051229 -0.268606
vn -0.417682 0.259028 -0.870888
vn -0.974458 -0.223597 -0.020873
vn -0.900111 -0.435635 -0.004753
vn 0.343775 0.934836 0.088883
vn 0.735226 0.677512 0.020501
vn 0.998927 0.046206 -0.003137
vn 0.955064 0.233424 0.182666
vn 0.999809 0.017324 0.009080
vn 0.006409 0.999968 -0.004795
vn -0.050951 0.997863 -0.040900
vn -0.138428 -0.990046 0.025428
vn -0.065414 -0.995594 -0.067186
vn -0.376775 0.881440 0.284789
vn 0.003667 0.209633 0.977773
vn 0.423060 -0.314971 -0.849596
vn 0.026812 -0.029161 -0.999215
vn 0.276491 -0.958344 -0.071618
vn -0.132373 0.041654 0.990324
vn 0.908031 -0.219296 0.356917
vn 0.998003 -0.037257 0.051015
vn 0.017089 0.915848 0.401162
vn -0.998935 -0.026542 0.037733
vn 0.644056 0.443442 0.623339
vn 0.040454 -0.012051 -0.999109
vn -0.024215 -0.336752 -0.941282
vn -0.145531 -0.395349 -0.906929
vn 0.170031 -0.077396 0.982395
vn 0.042044 -0.989215 0.140307
vn 0.998658 0.033497 -0.039496
vn -0.053138 0.998284 -0.024611
s 1
g rubble_02_low:polySurface1 rubble_02_low:Group10933
usemtl initialShadingGroup
f 6/1/1 3/2/2 36/3/3
f 56/4/4 70/5/5 34/6/6
f 15/7/7 8/8/8 3/2/2
f 61/9/9 1/10/10 20/11/11 69/12/12
f 41/13/13 5/14/14 29/15/15
f 44/16/16 76/17/17 24/18/18 66/19/19
f 27/20/20 6/1/1 71/21/21 34/6/6
f 32/22/22 46/23/23 74/24/24 38/25/25
f 5/14/14 41/13/13 16/26/26
f 23/27/27 72/28/28 51/29/29
f 43/30/30 4/31/31 8/8/8
f 17/32/32 81/33/33 10/34/34 18/35/35
f 9/36/36 79/37/37 77/38/38
f 18/35/35 10/34/34 49/39/39 77/38/38
f 70/40/5 37/41/40 21/42/41 34/43/6
f 26/44/42 1/10/10 61/9/9
f 11/45/43 25/46/44 12/47/45
f 23/27/27 31/48/46 72/28/28
f 73/49/47 13/50/48 50/51/49
f 61/9/9 69/12/12 75/52/50
f 62/53/51 49/39/39 10/34/34 68/54/52
f 74/24/24 19/55/53 48/56/54 38/25/25
f 8/8/8 54/57/55 2/58/56 43/30/30
f 7/59/57 2/58/56 57/60/58
f 63/61/59 16/26/26 41/13/13
f 25/46/44 11/45/43 26/44/42 61/9/9
f 8/8/8 4/31/31 33/62/60
f 3/2/2 8/8/8 60/63/61
f 79/37/37 6/1/1 18/35/35 77/38/38
f 6/1/1 17/32/32 18/35/35
f 19/55/53 74/24/24 42/64/62
f 56/4/4 47/65/63 26/44/42
f 46/23/23 32/22/22 20/11/11 1/10/10
f 3/2/2 6/1/1 27/20/20 28/66/64
f 28/66/64 15/7/7 3/2/2
f 37/41/40 22/67/65 21/42/41
f 44/16/16 53/68/66 35/69/67
f 20/11/11 32/22/22 55/70/68 69/12/12
f 51/29/29 39/71/69 23/27/27
f 12/72/45 31/48/46 23/27/27
f 10/34/34 81/33/33 24/18/18 68/73/52
f 65/74/70 61/75/9 64/76/71 31/77/46
f 31/48/46 12/72/45 65/78/70
f 56/4/4 26/44/42 11/45/43 70/5/5
f 61/75/9 16/26/26 63/61/59
f 61/75/9 5/14/14 16/26/26
f 22/67/65 78/79/72 28/66/64
f 21/42/41 22/67/65 28/66/64
f 21/80/41 28/66/64 27/20/20 34/6/6
f 29/15/15 4/31/31 43/30/30 41/13/13
f 48/56/54 19/55/53 30/81/73
f 71/21/21 6/1/1 79/37/37
f 31/77/46 64/76/71 57/60/58 45/82/74
f 35/69/67 53/68/66 58/83/75
f 36/3/3 17/32/32 6/1/1
f 24/18/18 40/84/76 14/85/77 68/73/52
f 36/3/3 33/62/60 17/32/32
f 3/2/2 60/63/61 36/3/3
f 11/86/43 12/72/45 37/41/40 70/40/5
f 12/72/45 23/27/27 39/71/69
f 62/53/51 38/25/25 48/56/54 49/39/39
f 32/22/22 38/25/25 14/87/77 40/88/76
f 39/71/69 37/41/40 12/72/45
f 22/67/65 37/41/40 59/89/78
f 58/83/75 53/68/66 32/90/22
f 63/61/59 41/13/13 2/58/56 7/59/57
f 42/64/62 47/65/63 56/4/4
f 2/58/56 41/13/13 43/30/30
f 53/91/66 44/92/16 50/51/49 13/50/48
f 66/19/19 4/31/31 50/51/49
f 72/28/28 78/79/72 22/67/65
f 57/60/58 2/58/56 54/57/55 45/93/74
f 74/24/24 46/23/23 42/64/62
f 67/94/79 47/65/63 42/64/62
f 1/10/10 26/44/42 47/65/63
f 1/10/10 47/65/63 67/94/79
f 9/36/36 48/56/54 30/81/73
f 49/39/39 9/36/36 77/38/38
f 48/56/54 9/36/36 49/39/39
f 4/31/31 29/15/15 50/51/49
f 73/49/47 50/51/49 29/15/15 52/95/80
f 22/67/65 51/29/29 72/28/28
f 59/89/78 51/29/29 22/67/65
f 5/14/14 52/95/80 29/15/15
f 75/96/50 5/14/14 61/75/9
f 13/97/48 75/52/50 55/70/68 53/98/66
f 54/57/55 8/8/8 78/79/72
f 78/79/72 45/93/74 54/57/55
f 32/22/22 53/98/66 55/70/68
f 19/55/53 42/64/62 56/4/4
f 56/4/4 34/6/6 71/21/21 19/55/53
f 40/84/76 58/83/75 32/90/22
f 39/71/69 51/29/29 59/89/78
f 37/41/40 39/71/69 59/89/78
f 60/63/61 8/8/8 33/62/60
f 60/63/61 33/62/60 36/3/3
f 14/87/77 38/25/25 62/53/51
f 14/87/77 62/53/51 68/54/52
f 57/60/58 64/76/71 7/59/57
f 64/76/71 63/61/59 7/59/57
f 64/76/71 61/75/9 63/61/59
f 25/46/44 61/9/9 65/99/70
f 25/46/44 65/99/70 12/47/45
f 50/51/49 44/92/16 66/19/19
f 42/64/62 46/23/23 67/94/79
f 46/23/23 1/10/10 67/94/79
f 69/12/12 55/70/68 75/52/50
f 19/55/53 71/21/21 79/37/37 30/81/73
f 72/28/28 31/48/46 45/93/74
f 72/28/28 45/93/74 78/79/72
f 5/14/14 75/96/50 52/95/80
f 75/96/50 13/50/48 73/49/47 52/95/80
f 76/17/17 35/69/67 58/83/75
f 76/17/17 44/16/16 35/69/67
f 78/79/72 80/100/81 15/7/7
f 28/66/64 78/79/72 15/7/7
f 9/36/36 30/81/73 79/37/37
f 78/79/72 8/8/8 80/100/81
f 80/100/81 8/8/8 15/7/7
f 33/62/60 4/31/31 81/33/33 17/32/32
f 4/31/31 66/19/19 24/18/18 81/33/33
f 76/17/17 58/83/75 40/84/76 24/18/18
